<svg version="1.1" id="Layer_1" xmlns="http://www.w3.org/2000/svg" xmlns:xlink="http://www.w3.org/1999/xlink" x="0px" y="0px"
	 width="100%" viewBox="0 0 1024 544" enable-background="new 0 0 1024 544" xml:space="preserve">
<path fill="#000000" opacity="1.000000" stroke="none" 
	d="
M569.780762,128.431305 
	C580.032898,126.234322 586.860901,127.339668 592.083740,132.132706 
	C586.588074,137.466461 580.274841,141.729492 574.205200,146.237823 
	C533.687866,176.332825 493.071533,206.294510 452.562469,236.400589 
	C448.533844,239.394623 443.921967,240.579758 439.358459,242.080688 
	C435.404785,243.381042 431.391541,244.506363 427.464050,245.878998 
	C419.315582,248.726822 416.270844,254.116211 417.913025,262.518311 
	C422.247742,284.696411 406.562408,303.299164 384.348450,302.264954 
	C378.567444,301.995789 373.308472,299.994263 368.152405,296.590851 
	C364.648254,302.669769 366.899536,307.935181 369.668518,313.087036 
	C372.228271,317.849579 370.261414,322.313599 364.997375,323.407715 
	C362.659210,323.893707 361.712921,322.135986 360.694855,320.684570 
	C354.311157,311.583282 352.756653,301.739777 356.793213,291.313446 
	C358.178833,287.734436 358.324524,284.691193 357.094574,280.868042 
	C350.346283,259.891724 365.698517,239.019302 388.196564,239.003464 
	C398.908539,238.995926 408.093170,235.712448 416.721771,229.955292 
	C464.395752,198.146454 512.175110,166.493332 559.122375,133.610016 
	C562.274292,131.402344 565.698364,129.687714 569.780762,128.431305 
M405.536774,272.108429 
	C405.814545,270.082703 405.373352,268.146393 404.870514,266.201416 
	C402.782196,258.123657 395.684387,252.446350 387.465057,252.319733 
	C379.483978,252.196777 371.881561,257.653198 369.669952,265.091766 
	C367.112793,273.692505 370.084717,281.773346 377.663727,286.248413 
	C388.196533,292.467560 402.795715,287.550720 405.536774,272.108429 
M456.621735,224.306793 
	C459.447571,222.136475 459.582672,219.569519 457.253082,217.109589 
	C455.314606,215.062653 452.916412,214.636902 450.729523,216.922806 
	C448.845917,218.891724 448.846344,221.102402 450.480164,223.210037 
	C451.884125,225.021210 453.871216,225.038712 456.621735,224.306793 
z"/>
<path fill="#000000" opacity="1.000000" stroke="none" 
	d="
M555.350647,225.132233 
	C552.165955,227.856064 549.256836,230.345901 546.252625,232.715073 
	C543.960876,234.522369 542.315918,234.106766 540.628845,231.476471 
	C534.365784,221.711945 524.295410,220.334381 515.690613,228.076736 
	C502.069946,240.332214 488.541779,252.691483 475.053467,265.092712 
	C468.600708,271.025391 468.141205,281.070953 473.808533,287.646484 
	C479.843567,294.648682 489.843628,295.469391 497.047455,289.228851 
	C506.112976,281.375549 515.055786,273.373688 523.852478,265.221130 
	C526.489441,262.777252 528.852478,262.394653 532.346741,263.079163 
	C542.179871,265.005493 551.661560,263.805695 559.828796,257.428986 
	C562.359802,255.452835 564.540283,254.972656 567.564270,256.180725 
	C581.016113,261.554718 594.510803,266.826721 608.064758,271.937073 
	C612.092407,273.455658 611.875732,275.230743 609.456543,278.061188 
	C602.984619,285.633362 591.411743,288.002960 579.998352,283.685699 
	C569.406189,279.679077 558.836182,275.594421 548.404724,271.192535 
	C544.399231,269.502289 541.767761,270.259949 538.682800,273.142212 
	C527.974365,283.147064 517.026184,292.896515 506.117645,302.685638 
	C492.931274,314.518860 473.358643,313.516785 461.224304,300.450195 
	C448.974335,287.259155 448.983734,267.635651 461.834778,255.517822 
	C476.983276,241.233566 492.353851,227.165390 508.046539,213.483414 
	C521.884460,201.418625 541.657837,203.195068 552.471252,216.928879 
	C554.226685,219.158417 556.769165,221.344604 555.350647,225.132233 
z"/>
<path fill="#000000" opacity="1.000000" stroke="none" 
	d="
M565.017700,159.827347 
	C580.400696,152.103683 596.973755,156.434814 606.652161,170.455826 
	C616.029907,184.041336 613.987915,201.184494 601.605652,212.503738 
	C588.700256,224.301193 575.804382,236.109482 562.837341,247.838943 
	C549.130981,260.237213 534.189514,261.541443 521.198303,251.610458 
	C517.101929,248.479019 512.437622,244.179367 513.712769,239.535782 
	C514.990906,234.881531 520.071167,231.264267 525.365784,229.506226 
	C525.647827,229.412567 526.011902,229.566254 526.663086,229.643265 
	C529.651917,236.917755 535.024658,240.715897 543.321594,239.798340 
	C547.179504,239.371689 550.278809,237.467789 553.016785,235.014969 
	C565.048279,224.236725 577.049744,213.423264 588.934509,202.483932 
	C593.638062,198.154526 595.965332,192.764145 594.114441,186.272629 
	C592.150879,179.385651 587.470032,175.286316 580.523743,173.788345 
	C575.325439,172.667374 570.956726,174.664474 567.259583,178.024490 
	C559.866394,184.743607 552.599060,191.604233 545.393372,198.524750 
	C543.154907,200.674591 541.065735,201.637741 537.839905,200.638275 
	C532.416077,198.957779 526.771484,198.888245 521.234192,200.213379 
	C520.669250,197.731934 522.307922,196.988312 523.310364,196.083313 
	C535.299316,185.259827 547.333862,174.486511 559.409851,163.760132 
	C561.015747,162.333710 562.916748,161.239517 565.017700,159.827347 
z"/>
<path fill="#000000" opacity="1.000000" stroke="none" 
	d="
M435.109863,213.156311 
	C428.873932,218.915680 422.570770,220.154022 414.891266,216.458466 
	C406.742676,212.537140 397.802734,212.856125 388.893799,213.210129 
	C370.603699,213.936935 357.277405,202.151596 355.372406,184.027954 
	C353.599701,167.162628 366.972412,151.128326 383.922974,149.794983 
	C401.632843,148.401917 417.545319,162.047073 418.285675,179.358292 
	C418.420563,182.511734 418.074585,185.682770 418.064453,188.846054 
	C418.045013,194.912689 420.110504,198.130142 425.841339,200.275055 
	C431.572876,202.420227 437.425812,204.240891 443.500305,206.296783 
	C441.872589,210.317032 437.842804,210.677094 435.109863,213.156311 
M391.465637,163.803772 
	C379.355743,160.375473 366.524780,171.024734 368.842407,184.538574 
	C370.497437,194.189087 377.955078,200.139908 387.386261,200.026718 
	C396.109161,199.921997 403.125458,194.102570 404.695007,185.670547 
	C406.545074,175.731277 402.024780,167.902084 391.465637,163.803772 
z"/>
<path fill="#000000" opacity="1.000000" stroke="none" 
	d="
M584.465820,242.308517 
	C582.785522,242.098450 581.289062,242.597153 580.185181,240.357910 
	C585.293213,235.767853 590.514404,230.983887 595.876221,226.363220 
	C596.630615,225.713043 598.071045,225.680359 599.197510,225.667068 
	C617.674744,225.449005 636.152405,225.262268 654.630371,225.125595 
	C656.617981,225.110886 658.619385,225.369766 660.594910,225.642944 
	C665.412415,226.309097 668.318542,230.046753 668.052551,235.114517 
	C667.799744,239.930420 665.204407,242.320953 659.835510,242.327713 
	C634.858215,242.359222 609.880920,242.326752 584.465820,242.308517 
z"/>
<path fill="#000000" opacity="1.000000" stroke="none" 
	d="
M635.048950,434.261353 
	C632.443542,430.159576 630.078186,426.373810 627.621460,422.441742 
	C623.574463,424.091858 621.932129,426.797913 622.361511,430.714111 
	C622.810120,434.805450 621.156311,436.272278 616.997620,436.260620 
	C612.738708,436.248688 611.611511,434.503265 611.656311,430.551483 
	C611.809143,417.075073 611.809143,403.594238 611.626282,390.118347 
	C611.571106,386.050201 612.906372,384.587860 617.071655,384.557159 
	C621.390198,384.525421 622.483093,386.290680 622.359375,390.215424 
	C622.146057,396.975616 622.300293,403.747375 622.300293,411.570282 
	C630.134827,405.944061 634.350647,394.859558 646.567810,399.929779 
	C644.584106,404.025269 641.052490,406.821869 637.980591,409.833466 
	C634.986877,412.768402 634.312988,415.079407 637.052917,418.706940 
	C640.922058,423.829498 644.169861,429.421356 648.293396,435.748932 
	C643.226562,436.002838 639.163818,437.575348 635.048950,434.261353 
z"/>
<path fill="#000000" opacity="1.000000" stroke="none" 
	d="
M466.479462,420.138000 
	C466.579895,414.226257 466.775024,408.730804 466.606384,403.246490 
	C466.490601,399.481201 468.462616,398.772339 471.583801,398.878601 
	C474.519501,398.978516 477.359558,398.753876 477.313751,403.082642 
	C477.211609,412.732758 477.371826,422.385681 477.272675,432.035858 
	C477.233734,435.826599 472.802216,437.616821 468.683533,435.587616 
	C467.863342,435.183502 467.252319,434.354889 466.522430,433.701996 
	C463.141266,435.714569 459.810486,437.210480 456.008362,437.030762 
	C448.090759,436.656586 442.812592,431.604706 442.113098,422.808044 
	C441.587128,416.193939 441.997009,409.507202 441.939819,402.853241 
	C441.910065,399.389709 444.001068,398.744659 446.865082,398.874695 
	C449.670227,399.002106 452.890747,398.420624 452.949463,402.751129 
	C453.021637,408.074921 452.993408,413.400116 453.073364,418.723724 
	C453.126984,422.291351 453.134827,426.048157 457.839386,426.782410 
	C462.646362,427.532562 465.432495,425.217255 466.479462,420.138000 
z"/>
<path fill="#000000" opacity="1.000000" stroke="none" 
	d="
M580.292419,415.544525 
	C580.261780,421.142548 580.050598,426.308319 580.276001,431.454987 
	C580.489990,436.340179 577.387451,436.116272 574.056458,436.217163 
	C570.643188,436.320496 569.399597,435.094757 569.495911,431.535553 
	C569.738831,422.558167 569.517517,413.569122 569.642273,404.586945 
	C569.669250,402.645447 568.337708,399.573669 571.331055,399.097809 
	C574.313293,398.623749 578.153503,397.197449 579.928467,401.917267 
	C581.117676,401.177856 582.037720,400.507172 583.039856,399.998077 
	C592.769043,395.055603 603.411865,400.797180 604.168274,411.717255 
	C604.638611,418.506134 604.208374,425.353790 604.311340,432.173096 
	C604.372009,436.190735 601.697449,436.115204 598.914368,436.158691 
	C595.998169,436.204224 593.576172,435.922119 593.669983,432.009155 
	C593.797607,426.688812 593.743591,421.361328 593.645386,416.039185 
	C593.572144,412.064240 592.473999,408.610809 587.710632,408.300568 
	C583.015076,407.994690 580.643494,410.517181 580.292419,415.544525 
z"/>
<path fill="#000000" opacity="1.000000" stroke="none" 
	d="
M436.450775,407.923065 
	C437.238312,409.955444 437.726044,411.835266 435.269836,412.138733 
	C432.537720,412.476318 429.524506,415.104431 427.009277,411.758942 
	C424.200287,408.022766 420.512848,406.941315 416.444794,408.839783 
	C412.380768,410.736389 411.071899,414.574310 411.397552,418.884552 
	C411.650940,422.238403 413.043854,425.180939 416.338257,426.373535 
	C419.774078,427.617310 423.603729,427.675140 425.978821,424.509186 
	C428.324280,421.382751 430.749146,421.969330 433.832733,422.594818 
	C437.808105,423.401154 437.773987,425.261078 436.219025,428.237000 
	C430.617615,438.956970 413.102570,440.139923 404.919861,430.309601 
	C398.013062,422.012085 399.670197,407.828644 408.255188,401.762512 
	C417.843903,394.987274 430.208679,397.544098 436.450775,407.923065 
z"/>
<path fill="#000000" opacity="1.000000" stroke="none" 
	d="
M492.988434,389.872864 
	C496.717377,389.594940 498.604248,390.815308 498.267029,394.387054 
	C497.967926,397.555725 499.282043,399.111053 502.562469,398.791260 
	C506.002075,398.455994 507.279694,400.040558 507.275726,403.465820 
	C507.271851,406.845276 506.063995,408.548737 502.612823,408.224976 
	C498.864746,407.873352 498.079285,409.937866 498.283569,413.118591 
	C498.432739,415.440643 498.410522,417.785797 498.283813,420.110809 
	C498.053009,424.345245 498.841064,427.399414 504.197601,426.907501 
	C507.448212,426.609009 506.981842,429.463776 507.438843,431.481750 
	C507.964325,433.802155 507.352325,435.259094 504.937866,436.059967 
	C496.204468,438.956696 488.148621,433.474640 487.751404,424.210815 
	C487.630219,421.384308 487.762085,418.547852 487.702148,415.717560 
	C487.628754,412.250519 488.856110,408.324066 483.161102,407.562531 
	C480.887329,407.258545 481.801544,404.187988 481.694946,402.285706 
	C481.603027,400.644714 482.115112,399.161194 484.010559,399.048737 
	C487.133698,398.863495 487.936523,397.044800 487.678894,394.345184 
	C487.330841,390.697083 489.324310,389.635651 492.988434,389.872864 
z"/>
<path fill="#000000" opacity="1.000000" stroke="none" 
	d="
M534.183289,384.775482 
	C542.245361,384.545258 542.249268,384.545258 542.255737,392.279968 
	C542.266541,405.112823 542.141479,417.947784 542.353149,430.777283 
	C542.422791,434.996887 540.812866,436.262787 536.787292,436.261047 
	C532.831604,436.259338 531.567749,434.745728 531.610413,430.916260 
	C531.762878,417.251770 531.649658,403.584503 531.714722,389.918640 
	C531.723633,388.052704 531.075623,385.748108 534.183289,384.775482 
z"/>
<path fill="#000000" opacity="1.000000" stroke="none" 
	d="
M550.730713,427.915894 
	C550.733765,419.448151 550.880188,411.463531 550.680115,403.487579 
	C550.579346,399.470642 552.640442,398.791901 555.954163,398.847290 
	C559.127563,398.900360 561.444824,399.287659 561.367126,403.399323 
	C561.194458,412.540924 561.194641,421.690735 561.385071,430.831757 
	C561.462891,434.567993 560.411499,436.284485 556.365784,436.259125 
	C552.466858,436.234741 550.239258,435.206940 550.721436,430.895172 
	C550.813232,430.074219 550.732300,429.233948 550.730713,427.915894 
z"/>
<path fill="#000000" opacity="1.000000" stroke="none" 
	d="
M479.613129,231.644684 
	C477.368469,233.660095 475.395569,235.451355 473.414673,237.233749 
	C468.340729,241.799225 465.883331,241.763870 459.493256,236.369171 
	C466.170502,231.722137 472.521576,227.005386 479.208588,222.826065 
	C481.258972,221.544617 483.542847,223.421036 485.427216,225.086792 
	C484.568298,228.229492 481.744202,229.415176 479.613129,231.644684 
z"/>
<path fill="#000000" opacity="1.000000" stroke="none" 
	d="
M512.784668,428.695251 
	C514.452820,425.075806 516.940613,423.519928 520.537537,424.693176 
	C523.539429,425.672302 525.280273,427.967621 524.978455,431.105377 
	C524.702393,433.974762 522.769653,435.882019 519.891052,436.540833 
	C515.534302,437.537903 512.815918,434.673126 512.784668,428.695251 
z"/>
<path fill="#000000" opacity="1.000000" stroke="none" 
	d="
M551.717163,384.851440 
	C553.718384,383.304932 555.619263,382.942413 557.639160,383.654114 
	C560.674805,384.723633 562.395935,386.945007 561.820007,390.122711 
	C561.222595,393.418823 558.949036,395.474213 555.448608,395.136597 
	C552.043945,394.808197 550.189941,392.557190 549.845642,389.169769 
	C549.685059,387.589691 550.404236,386.273621 551.717163,384.851440 
z"/>
<path fill="#000000" opacity="1.000000" stroke="none" 
	d="
M514.891846,254.073029 
	C516.385376,255.948242 519.073975,256.246338 519.525269,259.675690 
	C512.612610,257.341492 506.354858,254.814819 499.428345,251.424622 
	C502.251251,248.837830 504.382996,246.884415 506.674805,244.784302 
	C510.313477,247.229477 511.404999,251.504959 514.891846,254.073029 
z"/>
</svg>